<?xml version="1.0" ?><!DOCTYPE svg  PUBLIC '-//W3C//DTD SVG 1.1//EN'  'http://www.w3.org/Graphics/SVG/1.1/DTD/svg11.dtd'><svg enable-background="new 0 0 128 128" id="Слой_1" version="1.1" viewBox="0 0 128 128" xml:space="preserve" xmlns="http://www.w3.org/2000/svg" xmlns:xlink="http://www.w3.org/1999/xlink"><g><circle cx="64" cy="64" fill="#C1E1CA" r="62"/><g><g><g><g><path d="M113.6,90.5H64.9c-1.7,0-3.1,1.4-3.1,3.1c0,1.7,1.4,3.1,3.1,3.1h48.8c1.7,0,3.1-1.4,3.1-3.1       C116.7,91.9,115.4,90.5,113.6,90.5z" fill="#E68076"/></g></g><g opacity="0.15"><g><path d="M113.6,90.5H64.9c-1.7,0-3.1,1.4-3.1,3.1c0,1.7,1.4,3.1,3.1,3.1h48.8c1.7,0,3.1-1.4,3.1-3.1       C116.7,91.9,115.4,90.5,113.6,90.5z" fill="#04080A"/></g></g><g><g><path d="M117.9,94.7c-0.4,0.7-0.8,1.4-1.3,2.2C117.2,96.3,117.6,95.5,117.9,94.7z" fill="#2D2E2D"/><path d="M118,93.7c0-2.4-2-4.4-4.4-4.4H64.9c-2.4,0-4.4,2-4.4,4.4s2,4.4,4.4,4.4h48.8c1.1,0,2.2-0.4,2.9-1.2       c0.4-0.7,0.9-1.4,1.3-2.2C117.9,94.4,118,94,118,93.7z M113.6,95.5H64.9c-1,0-1.9-0.8-1.9-1.9s0.8-1.9,1.9-1.9h48.8       c1,0,1.9,0.8,1.9,1.9S114.7,95.5,113.6,95.5z" fill="#2D2E2D"/></g></g><path d="M108.7,89.3C106.7,69.4,91.2,53,71.4,50.1c-6.4-0.9-12.5-0.5-18.2,1.1c-1.5,0.4-3.1,0.3-4.5-0.2l-13-4.6     v11c0,2-0.8,4-2.2,5.4c-4.4,4.5-7.9,10-10.1,16.1c-0.8,2.2-2.9,3.8-5.2,3.8h-0.9c-2.4,0-4.4,2-4.4,4.4V99v1.3     c0,2.4,2,4.4,4.4,4.4c0,0,0,0,0,0h0.9c2.4,0,4.4,1.5,5.2,3.8c0.4,1.3,1,2.5,1.5,3.7C35.6,120.8,49.2,126,64,126     c16.1,0,30.8-6.1,41.8-16.2C108.3,103.5,109.4,96.6,108.7,89.3z" fill="#E68076"/><path d="M109.9,89.1c-2-20.4-18.1-37.3-38.3-40.3C65.3,48,58.9,48.3,52.9,50c-1.2,0.3-2.5,0.3-3.8-0.2l-13-4.6     c-0.4-0.1-0.8-0.1-1.1,0.2c-0.3,0.2-0.5,0.6-0.5,1v11c0,1.7-0.7,3.3-1.9,4.6c-4.6,4.7-8.2,10.4-10.4,16.5     c-0.6,1.8-2.3,2.9-4.1,2.9h-0.9c-3.1,0-5.7,2.5-5.7,5.7v10v3.2c0,3.1,2.5,5.7,5.7,5.7h0.9c0.1,0,0.1,0,0.2,0     c1.7,0.1,3.3,1.2,3.9,2.9c0.2,0.5,0.4,1,0.6,1.4c1.4,1.3,2.9,2.5,4.4,3.6c-1-1.9-1.9-3.9-2.6-5.9c-1-2.7-3.6-4.6-6.4-4.6h-0.9     c-0.5,0-0.9-0.1-1.3-0.3c-0.9-0.4-1.6-1.3-1.8-2.3c0-0.2-0.1-0.4-0.1-0.6V87c0-1.7,1.4-3.2,3.2-3.2h0.9c2.9,0,5.4-1.8,6.4-4.6     c2.1-5.8,5.5-11.2,9.8-15.6c1.7-1.7,2.6-3.9,2.6-6.3v-9.3l11.3,4.1c1.7,0.6,3.6,0.7,5.3,0.3c5.7-1.6,11.7-1.9,17.7-1.1     c19.1,2.8,34.3,18.8,36.2,38c0.8,7.8-0.6,15.4-3.8,22.3c1.5-1.2,2.9-2.5,4.2-3.8C109.8,101.9,110.5,95.6,109.9,89.1z" fill="#2D2E2D"/><g><g opacity="0.15"><path d="M108.8,91.6c0-0.5-0.1-1-0.1-1.6c0-0.3,0-0.6-0.1-0.9c-0.1-1-0.3-2-0.4-3.1c-0.1-0.3-0.1-0.6-0.2-1       c-0.2-0.9-0.4-1.9-0.6-2.8c-0.1-0.3-0.2-0.6-0.3-0.9c-0.3-0.9-0.5-1.8-0.8-2.7c-0.1-0.2-0.1-0.4-0.2-0.5       c-0.3-0.9-0.7-1.8-1.1-2.7c-0.1-0.2-0.2-0.4-0.3-0.6c-0.5-1-0.9-1.9-1.5-2.8c-0.1-0.1-0.2-0.3-0.2-0.4c-1.2-2-2.4-3.9-3.9-5.7       c0,0,0,0,0-0.1c-0.7-0.9-1.5-1.7-2.3-2.6c-0.1-0.1-0.1-0.1-0.2-0.2c-0.8-0.8-1.6-1.6-2.4-2.4c0,0-0.1-0.1-0.1-0.1       c-0.8-0.7-1.7-1.4-2.5-2.1c-0.1,0-0.1-0.1-0.2-0.2c-0.8-0.6-1.7-1.2-2.6-1.8c-0.2-0.1-0.4-0.3-0.6-0.4c-0.8-0.5-1.7-1-2.5-1.5       c-0.3-0.1-0.6-0.3-0.8-0.4c-0.7-0.4-1.4-0.7-2.2-1c-0.4-0.2-0.7-0.3-1.1-0.5c-0.7-0.3-1.5-0.6-2.2-0.8       c-0.4-0.1-0.7-0.3-1.1-0.4c-0.9-0.3-1.8-0.5-2.7-0.7c-0.3-0.1-0.7-0.2-1-0.2c-1-0.2-2-0.4-3-0.6c-0.4-0.1-0.7-0.1-1.1-0.1       c-0.4-0.1-0.8-0.1-1.3-0.2c-0.3,0-0.6,0-0.9-0.1c-0.5,0-0.9-0.1-1.4-0.1c-0.3,0-0.7,0-1,0c-0.4,0-0.8,0-1.2,0       c-1.5,0-2.9,0.1-4.3,0.3C82.4,52.3,99.6,71,99.6,93.7c0,9.8-3.2,18.9-8.7,26.2c5.5-2.6,10.5-6.1,14.9-10.1       c2.1-5.3,3.2-11.1,3-17.2C108.8,92.2,108.8,91.9,108.8,91.6z" fill="#04080A"/></g></g></g><g><path d="M98.7,76.1L63.5,55.8c-0.6-0.4-1.4-0.6-2.1-0.6c-1.5,0-2.9,0.8-3.7,2.1l-0.1,0.2c-1.2,2-0.5,4.6,1.6,5.8     l35.1,20.3c0.6,0.4,1.4,0.6,2.1,0.6c1.5,0,2.9-0.8,3.7-2.1l0.1-0.2C101.4,79.8,100.7,77.2,98.7,76.1z M98.1,80.6L98,80.8     c-0.5,0.8-1.6,1.1-2.4,0.6L60.4,61.2c-0.8-0.5-1.1-1.5-0.6-2.4l0.1-0.2c0.3-0.5,0.9-0.9,1.5-0.9c0.3,0,0.6,0.1,0.9,0.2l35.1,20.3     C98.3,78.7,98.6,79.8,98.1,80.6z" fill="#2D2E2D"/></g><g opacity="0.15"><path d="M98.1,77.2L62.9,56.9c-1.4-0.8-3.3-0.3-4.1,1.1l-0.1,0.2c-0.8,1.4-0.3,3.3,1.1,4.1L95,82.5     c1.4,0.8,3.3,0.3,4.1-1.1l0.1-0.2C100,79.8,99.5,78,98.1,77.2z" fill="#04080A"/></g><g><g><circle cx="90.2" cy="47.3" fill="#EFC935" r="23.3"/></g><g><circle cx="90.2" cy="47.3" fill="#CDAF31" r="23.3"/></g><g><path d="M90.2,22.8c-13.5,0-24.5,11-24.5,24.5c0,13.5,11,24.5,24.5,24.5s24.5-11,24.5-24.5      C114.7,33.8,103.7,22.8,90.2,22.8z M90.2,69.3c-12.1,0-22-9.9-22-22c0-12.1,9.9-22,22-22s22,9.9,22,22      C112.2,59.4,102.4,69.3,90.2,69.3z" fill="#2D2E2D"/></g><g opacity="0.3"><path d="M90.2,29.2c-9.9,0-18,8.1-18,18s8.1,18,18,18s18-8.1,18-18S100.2,29.2,90.2,29.2z" fill="#F8F9F7"/></g><g><path d="M90.2,28c-10.6,0-19.3,8.7-19.3,19.3c0,10.6,8.7,19.3,19.3,19.3s19.3-8.7,19.3-19.3      C109.5,36.6,100.9,28,90.2,28z M90.2,64.1c-9.3,0-16.8-7.5-16.8-16.8c0-9.3,7.5-16.8,16.8-16.8S107,38,107,47.3      C107,56.5,99.5,64.1,90.2,64.1z" fill="#2D2E2D"/></g><g><path d="M93.9,47.5c-0.6-0.4-1.3-0.7-2-0.9c-0.6-0.2-1.3-0.4-1.9-0.6c-0.6-0.2-1.2-0.3-1.7-0.6      c-0.4-0.2-0.8-0.4-1.1-0.7c-0.3-0.2-0.5-0.6-0.7-1c-0.1-0.3-0.3-0.8-0.3-1.6c0-0.4,0.1-0.9,0.2-1.3c0.2-0.4,0.4-0.8,0.7-1.1      c0.3-0.3,0.7-0.6,1.2-0.8c0.5-0.2,1.1-0.3,1.8-0.3c0.7,0,1.3,0.1,1.8,0.3c0.5,0.2,0.9,0.5,1.2,0.8c0.3,0.4,0.5,0.8,0.7,1.3      c0.2,0.5,0.8,0.8,1.3,0.7c0.5-0.2,0.8-0.7,0.7-1.3c-0.2-0.7-0.6-1.4-1.1-2c-0.5-0.6-1.1-1-1.9-1.4c-0.5-0.2-1-0.4-1.6-0.4v-0.7      c0-0.6-0.5-1-1-1c-0.6,0-1,0.5-1,1v0.7c-0.6,0.1-1.1,0.2-1.6,0.4c-0.8,0.3-1.4,0.7-1.9,1.3c-0.5,0.5-0.9,1.1-1.1,1.8      c-0.2,0.7-0.4,1.3-0.4,2c0,1,0.2,1.8,0.5,2.5c0.3,0.7,0.7,1.2,1.2,1.7c0.5,0.4,1.1,0.8,1.7,1c0.6,0.2,1.3,0.5,1.9,0.6      c0.6,0.2,1.3,0.4,1.9,0.5c0.6,0.2,1.1,0.4,1.5,0.7c0.4,0.3,0.8,0.6,1,1.1c0.3,0.4,0.4,1.1,0.4,1.8c0,0.5-0.1,1.1-0.2,1.5      c-0.2,0.5-0.4,0.9-0.7,1.2c-0.3,0.3-0.7,0.6-1.2,0.8c-0.5,0.2-1.1,0.3-1.7,0.3c-0.6,0-1.1-0.1-1.6-0.2c-0.5-0.2-0.9-0.4-1.3-0.8      c-0.4-0.4-0.7-0.8-1-1.4c-0.2-0.5-0.8-0.8-1.3-0.5c-0.5,0.2-0.8,0.8-0.5,1.3c0.4,0.8,0.9,1.6,1.5,2.1c0.6,0.5,1.3,1,2.1,1.2      c0.3,0.1,0.6,0.2,0.9,0.2v0.8c0,0.6,0.5,1,1,1c0.6,0,1-0.5,1-1v-0.7c0.6-0.1,1.2-0.2,1.8-0.4c0.8-0.3,1.4-0.8,1.9-1.3      c0.5-0.6,0.9-1.2,1.1-2c0.2-0.7,0.3-1.4,0.3-2.2c0-1.1-0.2-2.1-0.7-2.9C95.2,48.5,94.6,47.9,93.9,47.5z" fill="#2D2E2D"/></g><g><path d="      M90.2,55.8" fill="none" stroke="#373B39" stroke-linecap="round" stroke-linejoin="round" stroke-miterlimit="10" stroke-width="2.5"/></g></g><g><circle cx="39.9" cy="77.3" fill="#EEEBA8" r="3.9"/></g><g><path d="M39.9,72.2c-2.8,0-5.1,2.3-5.1,5.1s2.3,5.1,5.1,5.1c2.8,0,5.1-2.3,5.1-5.1S42.7,72.2,39.9,72.2z M39.9,80     c-1.4,0-2.6-1.2-2.6-2.6s1.2-2.6,2.6-2.6c1.5,0,2.6,1.2,2.6,2.6S41.3,80,39.9,80z" fill="#2D2E2D"/></g></g></g></svg>